<svg width="128" height="128" viewBox="0 0 128 128" fill="none" xmlns="http://www.w3.org/2000/svg">
  <!-- Simple bug-ish glyph for VS Code activity bar (monochrome-friendly) -->
  <path d="M64 20c-14.36 0-26 11.64-26 26v4H28a6 6 0 0 0 0 12h10v10H28a6 6 0 0 0 0 12h11.33A27.98 27.98 0 0 0 64 110a27.98 27.98 0 0 0 24.67-14H100a6 6 0 0 0 0-12H90V62h10a6 6 0 0 0 0-12H90v-4c0-14.36-11.64-26-26-26Zm14 34H50v-8c0-7.73 6.27-14 14-14s14 6.27 14 14v8Zm0 12v16c0 7.73-6.27 14-14 14s-14-6.27-14-14V66h28Z" fill="#C5C5C5"/>
</svg>

